<svg width="20" height="20" viewBox="0 0 20 20" fill="none" xmlns="http://www.w3.org/2000/svg">
    <path d="M6.68182 12.4545V7L4.5 4.27273V3.18182L11.0455 1C11.0455 1 13.7727 1 14.8636 2.09091C15.9545 3.18182 16.5 4.27273 16.5 6.45455C16.5 8.63636 9.95455 8.63636 9.95455 8.63636V12.4545H6.68182Z" stroke="#7E4732" stroke-width="2" stroke-linejoin="round"/>
    <path d="M7.77274 13V18.4545" stroke="#7E4732" stroke-width="2" stroke-linecap="round" stroke-linejoin="round"/>
    <path d="M5.05169 14.8934C8.19095 16.3237 11 15 11 15" stroke="#7E4732" stroke-width="2" stroke-linecap="round" stroke-linejoin="round"/>
    <path d="M5.04544 19C8.86362 17.9091 10.5 19 10.5 19" stroke="#7E4732" stroke-width="2" stroke-linecap="round" stroke-linejoin="round"/>
    <path d="M8.86363 4.81818C9.16488 4.81818 9.40909 4.57397 9.40909 4.27273C9.40909 3.97148 9.16488 3.72727 8.86363 3.72727C8.56238 3.72727 8.31818 3.97148 8.31818 4.27273C8.31818 4.57397 8.56238 4.81818 8.86363 4.81818Z" fill="#7E4732"/>
    <path d="M11.5455 4.32091C11.8467 4.32091 12.091 4.0767 12.091 3.77545C12.091 3.4742 11.8467 3.23 11.5455 3.23C11.2443 3.23 11 3.4742 11 3.77545C11 4.0767 11.2443 4.32091 11.5455 4.32091Z" fill="#7E4732"/>
</svg>
